<?xml version="1.0" standalone="no"?><!DOCTYPE svg PUBLIC "-//W3C//DTD SVG 1.1//EN" "http://www.w3.org/Graphics/SVG/1.1/DTD/svg11.dtd"><svg t="1567233107433" class="icon" viewBox="0 0 1024 1024" version="1.1" xmlns="http://www.w3.org/2000/svg" p-id="4312" xmlns:xlink="http://www.w3.org/1999/xlink" width="200" height="200"><defs><style type="text/css"></style></defs><path d="M522.55266133 954.30489125c-245.39833837 0-445.00764445-199.66149215-445.00764444-445.01128533 0-245.3461523 199.61173333-445.00400355 445.00764444-445.00400355 245.35222045 0 445.00278992 199.65299675 445.00278993 445.00400355 0 245.35950222-199.65056948 445.01128533-445.0015763 445.01128533z" p-id="4313"></path><path d="M435.040256 537.8745837h102.26164623c0-24.04200297-11.337728-38.12617482-11.337728-38.12617481h-88.74666667c2.10807467-43.55474015 3.99890963-99.45694815 4.67247407-120.21972386h84.4188634s-0.458752-35.72197452-9.8473908-35.72197451H368.07338666s8.93474133-46.71624533 20.83923437-67.33824c0 0-44.30719052-2.392064-59.42294755 56.68864-15.11211615 59.07949037-37.78271763 94.80267852-40.18691792 101.32836503-2.4042003 6.52447289 13.05258667 3.08990103 19.57705955 0 6.52690015-3.0923283 36.06664533-13.74071467 44.65307497-54.95679052h45.88248179c0.61895111 26.12095052 2.43575467 106.17317452 1.86292146 120.21972386H306.82149926c-13.39483022 9.61680118-17.85977363 38.12738845-17.85977363 38.12738844h107.96085096c-4.50256592 29.81281185-12.40814933 68.24239408-23.46431526 88.6168083-17.51510282 32.28740267-26.7920877 61.82714785-89.99427792 112.6648794 0 0-10.30371555 7.55605808 21.63901629 4.80718697 31.94515911-2.74523022 62.17424592-10.99062992 83.1239206-52.89726103 10.89353955-21.78586548 22.15723615-49.42142578 30.94512829-77.45020208l-0.03034072 0.09951763 88.96147909 102.42669985s11.6775443-27.47657482 3.0923283-57.70566162l-65.94863406-73.84936297-22.32471705 16.51143111-0.02669985 0.08131319c6.20164741-21.74096118 10.65930903-43.23434192 12.0464877-61.93394726 0.03398163-0.44904297 0.06796325-0.91022222 0.09709036-1.37140149z m0 0" fill="#e6e6e6" p-id="4314"></path><path d="M558.59867496 336.24822518v354.47694223h37.26692504l15.26746074 42.67000414 64.59422341-42.67000414h81.40542103v-354.47694223H558.59867496zM718.77594074 652.59899259h-42.31198341l-52.7771117 34.86272474-12.47368533-34.86272474h-13.17152237V375.80648297h120.73551643v276.79250962h-0.00121362z m0 0" fill="#e6e6e6" p-id="4315"></path></svg>