<?xml version="1.0" standalone="no"?><!DOCTYPE svg PUBLIC "-//W3C//DTD SVG 1.1//EN" "http://www.w3.org/Graphics/SVG/1.1/DTD/svg11.dtd"><svg t="1567233171322" class="icon" viewBox="0 0 1024 1024" version="1.1" xmlns="http://www.w3.org/2000/svg" p-id="5045" xmlns:xlink="http://www.w3.org/1999/xlink" width="200" height="200"><defs><style type="text/css"></style></defs><path d="M342.327988 504.101603c-1.875722 0-3.752468-0.715292-5.184074-2.148945l-178.501618-178.494455c-2.86526-2.864237-2.86526-7.512098 0-10.369172 2.864237-2.864237 7.503912-2.864237 10.369172 0l178.501618 178.494455c2.86526 2.86526 2.86526 7.512098 0 10.369172C346.080456 503.386311 344.204733 504.101603 342.327988 504.101603z" p-id="5046"></path><path d="M902.352307 821.798586l-780.704615 0c-31.404275 0-56.95114-25.550958-56.95114-56.95114L64.696552 259.153577c0-31.401205 25.546865-56.95114 56.95114-56.95114l776.041404 0c19.848067 0 38.032236 11.551092 46.335351 29.425199 8.36042 18.003044 4.822847 38.863162-9.466615 55.78457-0.203638 0.242524-0.426719 0.472768-0.660033 0.687662l-221.392517 202.146155c-2.990104 2.728137-7.625685 2.513243-10.357916-0.472768-2.73223-2.993174-2.521429-7.625685 0.468675-10.362009l221.03129-201.81051c10.419314-12.55291 13.000095-27.03987 7.074123-39.800511-5.906529-12.718685-18.871832-20.931749-33.03338-20.931749l-776.041404 0c-23.316055 0-42.285101 18.969046-42.285101 42.285101l0 505.693869c0 23.316055 18.969046 42.285101 42.285101 42.285101l780.704615 0c23.315032 0 42.285101-18.969046 42.285101-42.285101L944.636385 438.185269c0-4.046157 3.28277-7.33302 7.33302-7.33302 4.049227 0 7.331996 3.286863 7.331996 7.33302l0 326.662178C959.303448 796.247628 933.756583 821.798586 902.352307 821.798586z" p-id="5047"></path><path d="M581.518888 469.027748c-4.776798 55.762057-7.161104 84.692999-7.161104 86.790779 0 20.530613 5.871737 30.792338 17.616234 30.792338 10.884919 0 19.882859-5.944392 26.996891-17.831128 7.110962-11.886737 10.670024-27.376538 10.670024-46.474521 0-27.877959-8.833188-50.649614-26.495471-68.31599-17.666376-17.659213-42.106022-26.496494-73.328149-26.496494-30.459763 0-55.665866 10.648535-75.619334 31.938442-19.957561 21.29707-29.93276 47.935803-29.93276 79.916201 0 31.322411 9.356098 56.528514 28.071364 75.619334 18.711173 19.09082 44.203802 28.644416 76.478912 28.644416 25.012698 0 46.689415-4.253888 65.020941-12.746315l0 20.336184c-17.855688 7.633872-40.197554 11.457971-67.026623 11.457971-37.523652 0-67.81457-11.293218-90.872751-33.872492-23.058182-22.577227-34.587784-52.10271-34.587784-88.580543 0-37.709894 12.101631-69.052771 36.305917-94.023514 24.203262-24.96358 55.210494-37.452021 93.020673-37.452021 35.325589 0 64.470402 10.382475 87.434439 31.149472 22.961991 20.766997 34.444521 47.81403 34.444521 81.133936 0 24.82748-6.159286 45.092033-18.475812 60.796729-12.316526 15.710836-27.354025 23.558579-45.114545 23.558579-22.628393 0-34.039291-11.979858-34.228603-35.947759l-0.716315 0c-7.641035 23.967902-22.248746 35.947759-43.825178 35.947759-14.035682 0-25.420998-5.155422-34.157995-15.467289-8.735974-10.311867-13.104472-24.347549-13.104472-42.106022 0-23.294566 6.015-42.628932 18.046023-58.004123 12.03-15.368028 27.54436-23.058182 46.546152-23.058182 7.446607 0 14.056148 1.891072 19.835787 5.656842 5.775546 3.773957 9.427729 8.4781 10.95655 14.10629l0.573052 0c0.093121-0.378624 0.619101-6.201242 1.57487-17.471947L581.518888 469.024678zM486.278661 547.941108c0 11.558255 2.454914 20.838628 7.374975 27.856469 4.916991 7.017841 11.909249 10.526761 20.981891 10.526761 12.506861 0 22.363356-6.251384 29.574602-18.761315 7.207153-12.503791 10.812264-29.023039 10.812264-49.554675 0-21.575409-9.072642-32.367207-27.211786-32.367207-12.316526 0-22.3214 6.015-30.003368 18.045C490.120157 515.717163 486.278661 530.46916 486.278661 547.941108z" p-id="5048"></path></svg>